<svg width="22" height="19" viewBox="0 0 22 19" fill="none" xmlns="http://www.w3.org/2000/svg">
<path d="M7.14058 19C5.96705 19 2.38019 19 2.38019 19C1.74893 19 1.14352 18.7498 0.697143 18.3044C0.25077 17.859 0 17.2549 0 16.625V2.37503C0 1.74514 0.25077 1.14105 0.697143 0.695655C1.14352 0.250257 1.74893 3.49647e-05 2.38019 3.49647e-05C2.38019 3.49647e-05 5.96705 -4.37058e-05 7.14058 3.49647e-05C8.31412 0.000113635 8.31412 2.37503 7.14058 2.37503C5.96705 2.37504 2.38019 2.37503 2.38019 2.37503V16.625C2.38019 16.625 5.96705 16.625 7.14058 16.625C8.31412 16.625 8.31412 19 7.14058 19Z" fill="white"/>
<path d="M12.9029 17.0821L14.5928 15.4101L9.92765 10.716H20.8099C21.1255 10.716 21.4282 10.5908 21.6514 10.3681C21.8746 10.1454 22 9.84341 22 9.52846C22 9.21352 21.8746 8.91147 21.6514 8.68877C21.4282 8.46608 21.1255 8.34096 20.8099 8.34096H9.90623L14.6428 3.65391L12.9672 1.96766L5.36125 9.49284L12.9029 17.0821Z" fill="white"/>
</svg>
