<svg width="25" height="17" viewBox="0 0 25 17" fill="none" xmlns="http://www.w3.org/2000/svg">
<path d="M12.5 5.1C13.4041 5.1 14.2713 5.45821 14.9106 6.09584C15.5499 6.73346 15.9091 7.59826 15.9091 8.5C15.9091 9.40174 15.5499 10.2665 14.9106 10.9042C14.2713 11.5418 13.4041 11.9 12.5 11.9C11.5959 11.9 10.7287 11.5418 10.0894 10.9042C9.45008 10.2665 9.09091 9.40174 9.09091 8.5C9.09091 7.59826 9.45008 6.73346 10.0894 6.09584C10.7287 5.45821 11.5959 5.1 12.5 5.1ZM12.5 0C18.1818 0 23.0341 3.52467 25 8.5C23.0341 13.4753 18.1818 17 12.5 17C6.81818 17 1.96591 13.4753 0 8.5C1.96591 3.52467 6.81818 0 12.5 0ZM2.47727 8.5C3.39574 10.3703 4.82194 11.9462 6.59373 13.0484C8.36551 14.1505 10.4118 14.7348 12.5 14.7348C14.5882 14.7348 16.6345 14.1505 18.4063 13.0484C20.1781 11.9462 21.6043 10.3703 22.5227 8.5C21.6043 6.62965 20.1781 5.05382 18.4063 3.95164C16.6345 2.84947 14.5882 2.26517 12.5 2.26517C10.4118 2.26517 8.36551 2.84947 6.59373 3.95164C4.82194 5.05382 3.39574 6.62965 2.47727 8.5Z" fill="white"/>
</svg>
