<svg width="41" height="41" viewBox="0 0 41 41" fill="none" xmlns="http://www.w3.org/2000/svg">
<path d="M40.1875 20.5C40.1875 31.3731 31.3731 40.1875 20.5 40.1875C9.62689 40.1875 0.8125 31.3731 0.8125 20.5C0.8125 9.62689 9.62689 0.8125 20.5 0.8125C31.3731 0.8125 40.1875 9.62689 40.1875 20.5Z" fill="#0C82EE"/>
<path d="M27.8318 26.5209L28.7063 20.9642H23.2355V17.3598C23.2355 15.8393 23.9983 14.3562 26.4487 14.3562H28.9375V9.62545C28.9375 9.62545 26.6798 9.25 24.5223 9.25C20.0146 9.25 17.0711 11.9119 17.0711 16.7291V20.9642H12.0625V26.5209H17.0711V39.9547C18.0766 40.1087 19.1053 40.1875 20.1533 40.1875C21.2012 40.1875 22.2299 40.1087 23.2355 39.9547V26.5209H27.8318Z" fill="white"/>
</svg>
