<svg width="41" height="40" viewBox="0 0 41 40" fill="none" xmlns="http://www.w3.org/2000/svg">
<path d="M40.1895 20.4371C40.1895 18.8183 40.0555 17.6371 39.7654 16.4121H20.9038V23.7183H31.9751C31.752 25.534 30.5467 28.2683 27.868 30.1057L27.8305 30.3503L33.7942 34.8779L34.2073 34.9184C38.0019 31.4839 40.1895 26.4308 40.1895 20.4371Z" fill="#4285F4"/>
<path d="M20.9012 39.6875C26.3253 39.6875 30.8788 37.9374 34.2047 34.9187L27.8654 30.106C26.1691 31.2654 23.8922 32.0748 20.9012 32.0748C15.5888 32.0748 11.0799 28.6405 9.47263 23.8936L9.23704 23.9132L3.03593 28.6163L2.95483 28.8373C6.25836 35.2685 13.0441 39.6875 20.9012 39.6875Z" fill="#34A853"/>
<path d="M9.4758 23.894C9.05171 22.669 8.80627 21.3564 8.80627 20.0002C8.80627 18.6439 9.05171 17.3315 9.45349 16.1065L9.44226 15.8456L3.16342 11.0669L2.95799 11.1627C1.59644 13.8314 0.815186 16.8284 0.815186 20.0002C0.815186 23.1721 1.59644 26.1689 2.95799 28.8377L9.4758 23.894Z" fill="#FBBC05"/>
<path d="M20.9013 7.92495C24.6736 7.92495 27.2182 9.52181 28.6692 10.8563L34.3388 5.43125C30.8567 2.25938 26.3254 0.3125 20.9013 0.3125C13.0441 0.3125 6.25838 4.73122 2.95483 11.1624L9.45035 16.1062C11.08 11.3594 15.5889 7.92495 20.9013 7.92495Z" fill="#EB4335"/>
</svg>
