<svg width="50" height="50" viewBox="0 0 50 50" fill="none" xmlns="http://www.w3.org/2000/svg">
<path d="M25 10C28.9782 10 32.7936 11.5804 35.6066 14.3934C38.4196 17.2064 40 21.0218 40 25C40 28.9782 38.4196 32.7936 35.6066 35.6066C32.7936 38.4196 28.9782 40 25 40C21.0218 40 17.2064 38.4196 14.3934 35.6066C11.5804 32.7936 10 28.9782 10 25C10 21.0218 11.5804 17.2064 14.3934 14.3934C17.2064 11.5804 21.0218 10 25 10ZM25 11.5789C21.4405 11.5789 18.0268 12.9929 15.5099 15.5099C12.9929 18.0268 11.5789 21.4405 11.5789 25C11.5789 28.5595 12.9929 31.9732 15.5099 34.4901C18.0268 37.0071 21.4405 38.4211 25 38.4211C26.7625 38.4211 28.5077 38.0739 30.136 37.3994C31.7643 36.725 33.2439 35.7364 34.4901 34.4901C35.7364 33.2439 36.725 31.7643 37.3994 30.136C38.0739 28.5077 38.4211 26.7625 38.4211 25C38.4211 21.4405 37.0071 18.0268 34.4901 15.5099C31.9732 12.9929 28.5595 11.5789 25 11.5789ZM24.2105 16.3158H25.7895V24.8737L33.2105 29.1526L32.4211 30.5263L24.2105 25.7895V16.3158Z" fill="white"/>
</svg>
