<svg width="18" height="24" viewBox="0 0 18 24" fill="none" xmlns="http://www.w3.org/2000/svg">
<path d="M2.25 24C1.63125 24 1.10175 23.7764 0.6615 23.3291C0.22125 22.8819 0.00075 22.3436 0 21.7143V10.2857C0 9.65714 0.2205 9.11924 0.6615 8.672C1.1025 8.22476 1.632 8.00076 2.25 8H3.375V5.71429C3.375 4.13333 3.92362 2.78591 5.02087 1.672C6.11812 0.558096 7.4445 0.000762685 9 7.80107e-07C10.5555 -0.000761125 11.8822 0.556572 12.9802 1.672C14.0782 2.78743 14.6265 4.13486 14.625 5.71429V8H15.75C16.3687 8 16.8986 8.224 17.3396 8.672C17.7806 9.12 18.0007 9.65791 18 10.2857V21.7143C18 22.3429 17.7799 22.8811 17.3396 23.3291C16.8994 23.7771 16.3695 24.0008 15.75 24H2.25ZM2.25 21.7143H15.75V10.2857H2.25V21.7143ZM9 18.2857C9.61875 18.2857 10.1486 18.0621 10.5896 17.6149C11.0306 17.1676 11.2507 16.6293 11.25 16C11.2492 15.3707 11.0291 14.8328 10.5896 14.3863C10.1501 13.9398 9.62025 13.7158 9 13.7143C8.37975 13.7128 7.85025 13.9368 7.4115 14.3863C6.97275 14.8358 6.75225 15.3737 6.75 16C6.74775 16.6263 6.96825 17.1646 7.4115 17.6149C7.85475 18.0651 8.38425 18.2888 9 18.2857ZM5.625 8H12.375V5.71429C12.375 4.76191 12.0469 3.95238 11.3906 3.28571C10.7344 2.61905 9.9375 2.28571 9 2.28571C8.0625 2.28571 7.26562 2.61905 6.60937 3.28571C5.95312 3.95238 5.625 4.76191 5.625 5.71429V8Z" fill="white"/>
</svg>
