<!DOCTYPE svg PUBLIC "-//W3C//DTD SVG 1.1//EN" "http://www.w3.org/Graphics/SVG/1.1/DTD/svg11.dtd">
<!-- Uploaded to: SVG Repo, www.svgrepo.com, Transformed by: SVG Repo Mixer Tools -->
<svg width="800px" height="800px" viewBox="0 0 24 24" id="sign-out-alt-2" xmlns="http://www.w3.org/2000/svg" class="icon multi-color" fill="#000000">
<g id="SVGRepo_bgCarrier" stroke-width="0"/>
<g id="SVGRepo_tracerCarrier" stroke-linecap="round" stroke-linejoin="round"/>
<g id="SVGRepo_iconCarrier">
<path id="secondary-stroke" d="M8,12H21m-4,4,4-4L17,8" style="fill: none; stroke: #00966e; stroke-linecap: round; stroke-linejoin: round; stroke-width: 2;"/>
<path id="tertiary-fill" d="M4,3H6A0,0,0,0,1,6,3V21a0,0,0,0,1,0,0H4a1,1,0,0,1-1-1V4A1,1,0,0,1,4,3Z" style="fill: #ff0000; stroke-width: 2;"/>
<path id="primary-stroke" d="M13,8V4a1,1,0,0,0-1-1H4A1,1,0,0,0,3,4V20a1,1,0,0,0,1,1h8a1,1,0,0,0,1-1V16" style="fill: none; stroke: #ff0000; stroke-linecap: round; stroke-linejoin: round; stroke-width: 2;"/>
</g>
</svg>