<svg width="31" height="30" viewBox="0 0 31 30" fill="none" xmlns="http://www.w3.org/2000/svg">
<path d="M28.3333 30L17.8333 19.5C17 20.1667 16.0416 20.6944 14.9583 21.0833C13.875 21.4722 12.7222 21.6667 11.5 21.6667C8.47218 21.6667 5.90996 20.6178 3.81329 18.52C1.71663 16.4222 0.667738 13.86 0.666627 10.8333C0.665516 7.80667 1.7144 5.24444 3.81329 3.14667C5.91218 1.04889 8.4744 0 11.5 0C14.5255 0 17.0883 1.04889 19.1883 3.14667C21.2883 5.24444 22.3366 7.80667 22.3333 10.8333C22.3333 12.0556 22.1388 13.2083 21.75 14.2917C21.3611 15.375 20.8333 16.3333 20.1666 17.1667L30.6666 27.6667L28.3333 30ZM11.5 18.3333C13.5833 18.3333 15.3544 17.6044 16.8133 16.1467C18.2722 14.6889 19.0011 12.9178 19 10.8333C18.9988 8.74889 18.27 6.97833 16.8133 5.52167C15.3566 4.065 13.5855 3.33556 11.5 3.33333C9.4144 3.33111 7.64385 4.06056 6.18829 5.52167C4.73274 6.98278 4.00329 8.75333 3.99996 10.8333C3.99663 12.9133 4.72607 14.6844 6.18829 16.1467C7.65052 17.6089 9.42107 18.3378 11.5 18.3333Z" fill="white"/>
</svg>
