<svg width="50" height="50" viewBox="0 0 50 50" fill="none" xmlns="http://www.w3.org/2000/svg">
<path d="M25.19 20.5357C24.2696 20.4448 23.3436 20.6407 22.5388 21.0964C21.734 21.5521 21.0897 22.2454 20.6941 23.0815C20.2986 23.9175 20.1711 24.8554 20.3291 25.7666C20.4872 26.6779 20.9231 27.5181 21.5771 28.1721C22.2311 28.8261 23.0712 29.2619 23.9825 29.42C24.8938 29.5781 25.8316 29.4506 26.6677 29.055C27.5037 28.6595 28.1971 28.0152 28.6528 27.2104C29.1085 26.4055 29.3043 25.4795 29.2134 24.5591C29.1098 23.5273 28.6526 22.5631 27.9193 21.8298C27.1861 21.0966 26.2218 20.6394 25.19 20.5357ZM35.9914 25C35.9886 25.4876 35.9528 25.9745 35.8842 26.4572L39.0531 28.9428C39.1911 29.0571 39.2841 29.2167 39.3155 29.3932C39.347 29.5696 39.3148 29.7515 39.2248 29.9065L36.2269 35.0935C36.1359 35.247 35.9936 35.3634 35.8251 35.4223C35.6566 35.4811 35.4727 35.4786 35.3059 35.4152L32.1587 34.1479C31.9852 34.0788 31.7972 34.0538 31.6116 34.0752C31.426 34.0966 31.2487 34.1638 31.0954 34.2706C30.6151 34.6013 30.1104 34.8951 29.5856 35.1495C29.4206 35.2297 29.2779 35.3493 29.1701 35.4977C29.0623 35.6461 28.9926 35.8188 28.9674 36.0005L28.4956 39.3572C28.4647 39.5345 28.3731 39.6955 28.2365 39.8128C28.1 39.93 27.927 39.9962 27.747 40H21.7512C21.5743 39.9969 21.4036 39.9337 21.2674 39.8207C21.1312 39.7077 21.0376 39.5516 21.0019 39.3783L20.5309 36.0264C20.5045 35.8427 20.433 35.6684 20.323 35.519C20.2129 35.3695 20.0676 35.2496 19.9001 35.1699C19.3759 34.9169 18.8729 34.6223 18.3959 34.2888C18.2431 34.1825 18.0664 34.1159 17.8815 34.095C17.6966 34.0741 17.5094 34.0995 17.3368 34.1689L14.1903 35.4355C14.0235 35.499 13.8397 35.5016 13.6712 35.4429C13.5027 35.3842 13.3604 35.2679 13.2692 35.1145L10.2713 29.9276C10.1812 29.7726 10.149 29.5907 10.1804 29.4142C10.2119 29.2377 10.305 29.0781 10.4431 28.9638L13.1213 26.861C13.2681 26.7445 13.3834 26.5932 13.4568 26.4209C13.5303 26.2485 13.5595 26.0606 13.5419 25.8741C13.5167 25.5818 13.5012 25.2902 13.5012 24.9979C13.5012 24.7056 13.516 24.4182 13.5419 24.1322C13.5576 23.9469 13.5269 23.7605 13.4526 23.5899C13.3784 23.4194 13.2628 23.2699 13.1164 23.1551L10.4396 21.0523C10.3037 20.9374 10.2126 20.7784 10.1822 20.6031C10.1518 20.4278 10.1841 20.2474 10.2734 20.0935L13.2713 14.9065C13.3624 14.753 13.5047 14.6366 13.6732 14.5777C13.8417 14.5189 14.0255 14.5214 14.1924 14.5848L17.3396 15.8521C17.5131 15.9212 17.7011 15.9462 17.8867 15.9248C18.0722 15.9034 18.2496 15.8362 18.4029 15.7294C18.8832 15.3987 19.3879 15.1049 19.9127 14.8505C20.0777 14.7703 20.2204 14.6507 20.3282 14.5023C20.436 14.3539 20.5056 14.1812 20.5309 13.9995L21.0026 10.6428C21.0336 10.4655 21.1252 10.3045 21.2618 10.1872C21.3983 10.07 21.5713 10.0038 21.7512 10H27.747C27.924 10.0031 28.0946 10.0663 28.2308 10.1793C28.367 10.2923 28.4607 10.4484 28.4963 10.6217L28.9674 13.9736C28.9938 14.1573 29.0652 14.3316 29.1753 14.481C29.2854 14.6305 29.4306 14.7504 29.5982 14.8301C30.1224 15.0831 30.6254 15.3777 31.1024 15.7112C31.2551 15.8175 31.4319 15.8841 31.6168 15.905C31.8017 15.9259 31.9889 15.9005 32.1615 15.8311L35.308 14.5645C35.4748 14.501 35.6586 14.4984 35.8271 14.5571C35.9955 14.6158 36.1379 14.7321 36.229 14.8855L39.2269 20.0724C39.3171 20.2274 39.3493 20.4093 39.3178 20.5858C39.2864 20.7623 39.1933 20.9219 39.0552 21.0362L36.3769 23.139C36.2296 23.2551 36.1136 23.4062 36.0395 23.5786C35.9654 23.751 35.9357 23.9391 35.9529 24.1259C35.976 24.4161 35.9914 24.7077 35.9914 25Z" stroke="white" stroke-width="2" stroke-linecap="round" stroke-linejoin="round"/>
</svg>
